<svg width="43" height="42" viewBox="0 0 43 42" fill="none" xmlns="http://www.w3.org/2000/svg">
<path d="M0.373993 21C0.373993 32.5638 9.74828 41.938 21.312 41.938C32.8757 41.938 42.25 32.5638 42.25 21C42.25 9.43628 32.8757 0.0620117 21.312 0.0620117C9.74828 0.0620117 0.373993 9.43628 0.373993 21Z" fill="#FAFAFA"/>
<path fill-rule="evenodd" clip-rule="evenodd" d="M29.5867 25.2118L29.5824 25.3178L29.5758 25.4215L29.5671 25.5253L29.5551 25.6291L29.5409 25.7307L29.5245 25.8322L29.5048 25.9327L29.483 26.0332L29.4589 26.1315L29.4327 26.2298L29.4032 26.327L29.3727 26.4221L29.3388 26.5171L29.3028 26.611L29.2656 26.7039L29.2252 26.7956L29.1826 26.8852L29.1389 26.9748L29.0919 27.0622L29.0439 27.1495L28.9936 27.2347L28.9412 27.3189L28.8866 27.4008L28.8298 27.4827L28.7719 27.5624L28.7118 27.6411L28.6495 27.7175L28.5862 27.7929L28.5207 27.8661L28.454 27.9382L28.3852 28.0092L28.3142 28.078L28.2421 28.1446L28.1689 28.2102L28.0936 28.2746L28.016 28.3358L27.9385 28.3959L27.8587 28.4537L27.7768 28.5105L27.6949 28.5652L27.6108 28.6176L27.5256 28.6678L27.4382 28.7159L27.3508 28.7629L27.2612 28.8066L27.1717 28.8491L27.0799 28.8896L26.9871 28.9278L26.8931 28.9627L26.7981 28.9966L26.702 29.0272L26.6059 29.0567L26.5076 29.0829L26.4093 29.1069L26.3088 29.1288L26.2083 29.1484L26.1067 29.1648L26.0051 29.179L25.9014 29.191L25.7976 29.1998L25.6927 29.2074L25.5879 29.2107L25.4819 29.2118H17.2701L17.1641 29.2107L17.0582 29.2074L16.9544 29.1998L16.8496 29.191L16.7469 29.179L16.6442 29.1648L16.5437 29.1484L16.4421 29.1288L16.3427 29.1069L16.2444 29.0829L16.1461 29.0567L16.0489 29.0272L15.9528 28.9966L15.8588 28.9627L15.7649 28.9278L15.6721 28.8896L15.5803 28.8491L15.4896 28.8066L15.4012 28.7629L15.3127 28.7159L15.2264 28.6678L15.1412 28.6176L15.0571 28.5652L14.9741 28.5105L14.8932 28.4537L14.8135 28.3959L14.7349 28.3358L14.6584 28.2746L14.583 28.2102L14.5099 28.1446L14.4378 28.078L14.3668 28.0092L14.298 27.9382L14.2302 27.8661L14.1658 27.7929L14.1013 27.7175L14.0402 27.6411L13.9801 27.5624L13.9211 27.4827L13.8654 27.4008L13.8108 27.3189L13.7584 27.2347L13.7081 27.1495L13.659 27.0622L13.6131 26.9748L13.5683 26.8852L13.5268 26.7956L13.4864 26.7039L13.4482 26.611L13.4132 26.5171L13.3793 26.4221L13.3487 26.327L13.3192 26.2298L13.293 26.1315L13.269 26.0332L13.2472 25.9327L13.2275 25.8322L13.2111 25.7307L13.1969 25.6291L13.1849 25.5253L13.1751 25.4215L13.1685 25.3178L13.1652 25.2118L13.1631 25.1059V16.894L13.1652 16.7881L13.1685 16.6821L13.1751 16.5784L13.1849 16.4746L13.1969 16.3708L13.2111 16.2692L13.2275 16.1677L13.2472 16.0672L13.269 15.9667L13.293 15.8684L13.3192 15.7701L13.3487 15.6729L13.3793 15.5778L13.4132 15.4828L13.4482 15.3889L13.4864 15.296L13.5268 15.2043L13.5683 15.1147L13.6131 15.0251L13.659 14.9377L13.7081 14.8504L13.7584 14.7652L13.8108 14.6811L13.8654 14.5991L13.9211 14.5172L13.9801 14.4375L14.0402 14.3588L14.1013 14.2824L14.1658 14.207L14.2302 14.1338L14.298 14.0617L14.3668 13.9907L14.4378 13.9219L14.5099 13.8553L14.583 13.7897L14.6584 13.7253L14.7349 13.6641L14.8135 13.6041L14.8932 13.5451L14.9741 13.4894L15.0571 13.4347L15.1412 13.3823L15.2264 13.3321L15.3127 13.284L15.4012 13.237L15.4896 13.1923L15.5803 13.1508L15.6721 13.1103L15.7649 13.0721L15.8588 13.0372L15.9528 13.0033L16.0489 12.9727L16.1461 12.9432L16.2444 12.917L16.3427 12.893L16.4421 12.8711L16.5437 12.8515L16.6442 12.8351L16.7469 12.8209L16.8496 12.8089L16.9544 12.8001L17.0582 12.7925L17.1641 12.7892L17.2701 12.7881H25.4819L25.5879 12.7892L25.6927 12.7925L25.7976 12.8001L25.9014 12.8089L26.0051 12.8209L26.1067 12.8351L26.2083 12.8515L26.3088 12.8711L26.4093 12.893L26.5076 12.917L26.6059 12.9432L26.702 12.9727L26.7981 13.0033L26.8931 13.0372L26.9871 13.0721L27.0799 13.1103L27.1717 13.1508L27.2612 13.1923L27.3508 13.237L27.4382 13.284L27.5256 13.3321L27.6108 13.3823L27.6949 13.4347L27.7768 13.4894L27.8587 13.5451L27.9385 13.6041L28.016 13.6641L28.0936 13.7253L28.1689 13.7897L28.2421 13.8553L28.3142 13.9219L28.3852 13.9907L28.454 14.0617L28.5207 14.1338L28.5862 14.207L28.6495 14.2824L28.7118 14.3588L28.7719 14.4375L28.8298 14.5172L28.8866 14.5991L28.9412 14.6811L28.9936 14.7652L29.0439 14.8504L29.0919 14.9377L29.1389 15.0251L29.1826 15.1147L29.2252 15.2043L29.2656 15.296L29.3028 15.3889L29.3388 15.4828L29.3727 15.5778L29.4032 15.6729L29.4327 15.7701L29.4589 15.8684L29.483 15.9667L29.5048 16.0672L29.5245 16.1677L29.5409 16.2692L29.5551 16.3708L29.5671 16.4746L29.5758 16.5784L29.5824 16.6821L29.5867 16.7881L29.5878 16.894V25.1059L29.5867 25.2118ZM27.6993 16.906L27.6982 16.8361L27.696 16.7783L27.6927 16.7215L27.6873 16.6657L27.6807 16.61L27.6731 16.5543L27.6643 16.4997L27.6545 16.4462L27.6425 16.3927L27.6294 16.3392L27.6152 16.2867L27.5999 16.2354L27.5835 16.183L27.5649 16.1327L27.5464 16.0825L27.5256 16.0322L27.5038 15.9831L27.4819 15.935L27.4579 15.8869L27.4328 15.8389L27.4065 15.793L27.3792 15.7471L27.3508 15.7013L27.3213 15.6565L27.2907 15.6128L27.2591 15.5691L27.2263 15.5265L27.1935 15.485L27.1586 15.4446L27.1225 15.4041L27.0865 15.3648L27.0493 15.3266L27.0111 15.2895L26.9718 15.2523L26.9314 15.2174L26.891 15.1824L26.8495 15.1486L26.8069 15.1169L26.7632 15.0852L26.7195 15.0546L26.6747 15.0251L26.6288 14.9967L26.5829 14.9694L26.536 14.9432L26.489 14.9181L26.4409 14.8941L26.3929 14.8722L26.3437 14.8504L26.2935 14.8296L26.2432 14.811L26.1919 14.7925L26.1406 14.7761L26.0892 14.7608L26.0368 14.7466L25.9833 14.7335L25.9298 14.7215L25.8762 14.7116L25.8216 14.7018L25.7659 14.6942L25.7102 14.6887L25.6545 14.6832L25.5977 14.68L25.5398 14.6778L25.4699 14.6767H17.2821L17.2111 14.6778L17.1543 14.68L17.0975 14.6832L17.0407 14.6887L16.985 14.6942L16.9304 14.7018L16.8758 14.7116L16.8212 14.7215L16.7676 14.7335L16.7152 14.7466L16.6628 14.7608L16.6103 14.7761L16.559 14.7925L16.5087 14.811L16.4585 14.8296L16.4082 14.8504L16.3591 14.8722L16.311 14.8941L16.263 14.9181L16.2149 14.9432L16.1679 14.9694L16.1221 14.9967L16.0773 15.0251L16.0325 15.0546L15.9888 15.0852L15.9451 15.1169L15.9025 15.1486L15.861 15.1824L15.8195 15.2174L15.7802 15.2523L15.7409 15.2895L15.7026 15.3266L15.6655 15.3648L15.6284 15.4041L15.5934 15.4446L15.5585 15.485L15.5246 15.5265L15.4929 15.5691L15.4602 15.6128L15.4296 15.6565L15.4012 15.7013L15.3728 15.746L15.3455 15.793L15.3193 15.8389L15.2941 15.8869L15.2701 15.935L15.2472 15.9831L15.2264 16.0322L15.2057 16.0825L15.186 16.1327L15.1685 16.183L15.1521 16.2343L15.1368 16.2867L15.1226 16.3392L15.1095 16.3927L15.0975 16.4462L15.0877 16.4997L15.0779 16.5543L15.0702 16.61L15.0637 16.6657L15.0593 16.7215L15.056 16.7783L15.0538 16.8361L15.0527 16.906V25.0939L15.0538 25.1638L15.056 25.2216L15.0593 25.2785L15.0637 25.3342L15.0702 25.3899L15.0779 25.4456L15.0877 25.5002L15.0975 25.5537L15.1095 25.6072L15.1226 25.6608L15.1368 25.7132L15.1521 25.7656L15.1685 25.817L15.186 25.8672L15.2057 25.9174L15.2264 25.9677L15.2472 26.0168L15.2701 26.0649L15.2941 26.113L15.3193 26.161L15.3455 26.2069L15.3728 26.2539L15.4012 26.2986L15.4307 26.3434L15.4602 26.3871L15.4929 26.4308L15.5246 26.4734L15.5585 26.5149L15.5923 26.5553L15.6284 26.5958L15.6655 26.6351L15.7026 26.6733L15.7409 26.7104L15.7802 26.7476L15.8195 26.7825L15.861 26.8175L15.9025 26.8514L15.9451 26.883L15.9877 26.9147L16.0325 26.9453L16.0773 26.9748L16.1221 27.0032L16.1679 27.0305L16.2149 27.0567L16.263 27.0818L16.311 27.1059L16.3591 27.1277L16.4082 27.1495L16.4585 27.1703L16.5087 27.1889L16.559 27.2074L16.6103 27.2238L16.6628 27.2391L16.7152 27.2533L16.7676 27.2664L16.8212 27.2784L16.8758 27.2883L16.9304 27.2981L16.985 27.3057L17.0407 27.3112L17.0975 27.3167L17.1543 27.3199L17.2122 27.3221L17.2821 27.3232H25.4699L25.5398 27.3221L25.5977 27.3199L25.6545 27.3167L25.7102 27.3112L25.7659 27.3057L25.8216 27.2981L25.8762 27.2883L25.9298 27.2784L25.9833 27.2664L26.0368 27.2533L26.0892 27.2391L26.1406 27.2238L26.1919 27.2074L26.2432 27.1889L26.2935 27.1703L26.3437 27.1495L26.3929 27.1277L26.4409 27.1059L26.489 27.0818L26.536 27.0567L26.5829 27.0305L26.6288 27.0032L26.6747 26.9748L26.7195 26.9453L26.7632 26.9147L26.8069 26.883L26.8495 26.8514L26.891 26.8175L26.9314 26.7825L26.9718 26.7476L27.0111 26.7104L27.0493 26.6733L27.0865 26.6351L27.1225 26.5958L27.1586 26.5553L27.1935 26.5149L27.2263 26.4734L27.2591 26.4308L27.2907 26.3871L27.3213 26.3434L27.3508 26.2986L27.3792 26.2528L27.4065 26.2069L27.4328 26.161L27.4579 26.113L27.4819 26.0649L27.5038 26.0168L27.5256 25.9677L27.5464 25.9174L27.5649 25.8672L27.5835 25.817L27.5999 25.7645L27.6152 25.7132L27.6294 25.6608L27.6425 25.6072L27.6545 25.5537L27.6643 25.5002L27.6731 25.4456L27.6807 25.3899L27.6873 25.3342L27.6927 25.2785L27.696 25.2216L27.6982 25.1638L27.6993 25.0939V16.906Z" fill="#BABABA"/>
</svg>
